<svg id="Layer_1" data-name="Layer 1" xmlns="http://www.w3.org/2000/svg" viewBox="0 0 438.7 85.08"><defs><style>.cls-1,.cls-2{fill:#fff;}.cls-2{fill-rule:evenodd;}</style></defs><path class="cls-1" d="M270.62,365.09l-5.92,4.41c-2.66-2.87-5.64-4.3-9-4.3a13.7,13.7,0,0,0-10.6,4.47,15.83,15.83,0,0,0-4.07,11.11,16.75,16.75,0,0,0,4.07,11.63,13.52,13.52,0,0,0,10.6,4.58c3.68,0,6.88-1.78,9.57-5.3l6.28,4.55c-3.7,5.16-9,7.76-15.93,7.76q-9.93,0-16.24-6.3t-6.31-16.43q0-10.39,6.31-16.76t16.24-6.32a18.72,18.72,0,0,1,15,6.9Zm6.09,37.8V359.27h7.6v36.6h18.15v7Zm29-21.62q0-10.39,6.31-16.76t16.27-6.32c6.71-.15,12.18,1.91,16.41,6.12S351,374.08,351,381q0,10.14-6.31,16.46c-4.23,4.21-9.7,6.36-16.41,6.5s-12.06-2.09-16.27-6.3-6.31-9.65-6.31-16.43Zm8-.49a16.84,16.84,0,0,0,4.07,11.63,14.59,14.59,0,0,0,21.23,0,16.77,16.77,0,0,0,4.1-11.63A15.74,15.74,0,0,0,339,369.67a14.8,14.8,0,0,0-21.2,0,15.92,15.92,0,0,0-4.07,11.11Zm78.79-21.51v27.61c0,5.18-1.62,9.31-4.85,12.43a18.58,18.58,0,0,1-24.68,0c-3.23-3.12-4.86-7.25-4.86-12.43V359.27h7.61v27.35a11.13,11.13,0,0,0,2.32,6.93c1.55,2,4,3.07,7.27,3.07s5.72-1,7.26-3.07a11.08,11.08,0,0,0,2.33-6.93V359.27Zm9.35,43.62V359.27h16.83a22.33,22.33,0,0,1,15.4,5.67c4.2,3.78,6.34,9.17,6.34,16.15a21.72,21.72,0,0,1-2.11,9.66,18.42,18.42,0,0,1-5.41,6.87,26.15,26.15,0,0,1-7.24,3.92,24.22,24.22,0,0,1-7.88,1.35Zm7.6-7h5.66c5.17,0,9.34-1.2,12.54-3.64s4.8-6.12,4.8-11.14S431,372.3,428.1,369.9s-6.79-3.58-11.73-3.58h-6.95Zm38.74,7h5.07V383.3h19.89v-4.81H453.23V364.08h21.41v-4.81H448.16Zm33.55,0h5V359.27h-5ZM526,359.27h-33.3v4.81h14.14v38.81h5.05V364.08H526Z" transform="translate(-87.33 -352.92)"/><path class="cls-1" d="M260.3,416.32l-1.94,2.09a3.42,3.42,0,0,0-4.35-.72,1.64,1.64,0,0,0-.73,1.43,1.48,1.48,0,0,0,.57,1.18,3.53,3.53,0,0,0,1.29.74c.5.17,1.09.38,1.71.58a11.52,11.52,0,0,1,1.74.74,3.74,3.74,0,0,1,1.29,1.35,4.53,4.53,0,0,1,.5,2.2,4.33,4.33,0,0,1-1.54,3.61,6.13,6.13,0,0,1-3.93,1.26,6,6,0,0,1-4.88-2.06l2-2a3.35,3.35,0,0,0,3,1.58,3,3,0,0,0,1.79-.55,1.8,1.8,0,0,0,.81-1.54,1.86,1.86,0,0,0-.39-1.15,2.54,2.54,0,0,0-1-.72c-.42-.17-.9-.34-1.4-.51s-1-.4-1.49-.57a6.43,6.43,0,0,1-1.4-.75,3.12,3.12,0,0,1-1-1.26,4.5,4.5,0,0,1-.39-1.92,3.93,3.93,0,0,1,1.62-3.4,6.37,6.37,0,0,1,3.9-1.21,5.81,5.81,0,0,1,4.27,1.58Zm11.27,6.5a8,8,0,0,1,2.22-5.87,7.73,7.73,0,0,1,5.69-2.21,7.5,7.5,0,0,1,5.75,2.15,8.73,8.73,0,0,1,0,11.63,8,8,0,0,1-5.75,2.26,7.62,7.62,0,0,1-5.69-2.21,7.78,7.78,0,0,1-2.22-5.75Zm2.81-.17a6.09,6.09,0,0,0,1.4,4.09,5.19,5.19,0,0,0,7.46,0,6,6,0,0,0,1.41-4.09,5.62,5.62,0,0,0-1.43-3.9,5.26,5.26,0,0,0-7.44,0,5.74,5.74,0,0,0-1.4,3.9Zm24.82,7.76V415.14h9.65v2.44h-7v4h6.59v2.46h-6.59v6.36Zm24.41,0V417.58H319v-2.44h11.81v2.44h-4.58v12.83Zm21.09,0-4.46-15.27h2.89l2.81,11H346l3.37-11h2.58l3.31,11,.06,0,2.94-11h2.5l-4.15,15.27h-2.53l-3.48-11.63.06,0-3.45,11.6Zm24.94,0,6.51-15.27h2.3l6.45,15.27h-3.06l-1.37-3.5H374l-1.38,3.5Zm5.25-5.84h4.65l-2.33-6.22Zm20.89,5.84V415.14H401a10.4,10.4,0,0,1,1.72.12,4.72,4.72,0,0,1,1.48.43,3.49,3.49,0,0,1,1.26.8,3.28,3.28,0,0,1,.82,1.26,5,5,0,0,1,.31,1.75,4.39,4.39,0,0,1-.9,2.8,3.92,3.92,0,0,1-2.55,1.35l3.95,6.76h-3.2l-3.48-6.47h-1.93v6.47Zm2.67-8.82h2.08a8.35,8.35,0,0,0,.92,0,6.11,6.11,0,0,0,.84-.14,2.43,2.43,0,0,0,.79-.35,1.64,1.64,0,0,0,.5-.63,2.37,2.37,0,0,0,.2-.94,1.94,1.94,0,0,0-.28-1.09,1.55,1.55,0,0,0-.73-.63,6.83,6.83,0,0,0-.95-.26,10.55,10.55,0,0,0-1.07-.06h-2.3Zm19.86,8.82V415.14h9.9v2.44H421v3.75h6.88v2.46H421v4.15h7.63v2.47Z" transform="translate(-87.33 -352.92)"/><path class="cls-2" d="M159.34,402.89v1.29s6.79-10.51,17.76-16.78c16.32-9.34,37-4,44.09,14.54,7.66,20.13-10.4,32.28-28.08,35.28a59,59,0,0,1-7.51.75c-20.17.6-36.67-6.39-49.57-22.14,0,0,3.2,10.37,11.42,17.21a50,50,0,0,1-20.9,1.29c-6.56-1-13.24-3.75-19.47-6.76-11-5.32-20-11.85-19.75-23.11A24.48,24.48,0,0,1,92,391.35c11-16,45-35,64-38.06a28.57,28.57,0,0,1,5.64-.34c10.24.45,23.62,4.55,23.62,15.92s-13.83,8.16-23.62,6-35.49-1.06-47.21,16.06c0,0,27.63-18.92,52.12-3.17,0,0-5.59,4.09-7.13,15.09Z" transform="translate(-87.33 -352.92)"/></svg>