{
  "accessors": [
    {
      "bufferView": 2,
      "componentType": 5126,
      "count": 1225,
      "max": [
        2.927255630493164,
        0.5034180283546448,
        1.8445720672607422
      ],
      "min": [
        -1.1974165439605713,
        -0.5034180283546448,
        -2.0684871673583984
      ],
      "type": "VEC3"
    },
    {
      "bufferView": 2,
      "byteOffset": 14700,
      "componentType": 5126,
      "count": 1225,
      "max": [
        0.9999974370002747,
        0.9999962449073792,
        0.9999749064445496
      ],
      "min": [
        -0.9997059106826782,
        -0.9999962449073792,
        -0.999975860118866
      ],
      "type": "VEC3"
    },
    {
      "bufferView": 3,
      "componentType": 5126,
      "count": 1225,
      "max": [
        0.9999759197235107,
        0.993643581867218,
        0.999705970287323,
        1.0
      ],
      "min": [
        -0.9999891519546509,
        -1.0,
        -0.9999975562095642,
        -1.0
      ],
      "type": "VEC4"
    },
    {
      "bufferView": 1,
      "componentType": 5126,
      "count": 1225,
      "max": [
        0.9844099879264832,
        0.9909574389457703
      ],
      "min": [
        0.05152703449130058,
        0.004779502749443054
      ],
      "type": "VEC2"
    },
    {
      "bufferView": 0,
      "componentType": 5125,
      "count": 4860,
      "type": "SCALAR"
    },
    {
      "bufferView": 2,
      "byteOffset": 29400,
      "componentType": 5126,
      "count": 383,
      "max": [
        5.462803363800049,
        0.7212904095649719,
        2.899779796600342
      ],
      "min": [
        0.05967311933636665,
        -0.7212904095649719,
        0.30286747217178345
      ],
      "type": "VEC3"
    },
    {
      "bufferView": 2,
      "byteOffset": 33996,
      "componentType": 5126,
      "count": 383,
      "max": [
        1.0,
        1.0,
        1.0
      ],
      "min": [
        -1.0,
        -1.0,
        -1.0
      ],
      "type": "VEC3"
    },
    {
      "bufferView": 3,
      "byteOffset": 19600,
      "componentType": 5126,
      "count": 383,
      "max": [
        1.0,
        1.0,
        0.9999995827674866,
        1.0
      ],
      "min": [
        -1.0,
        -1.0,
        -0.9996594190597534,
        -1.0
      ],
      "type": "VEC4"
    },
    {
      "bufferView": 1,
      "byteOffset": 9800,
      "componentType": 5126,
      "count": 383,
      "max": [
        0.9925159215927124,
        0.982713520526886
      ],
      "min": [
        0.004779502749443054,
        0.004779502749443054
      ],
      "type": "VEC2"
    },
    {
      "bufferView": 0,
      "byteOffset": 19440,
      "componentType": 5125,
      "count": 987,
      "type": "SCALAR"
    },
    {
      "bufferView": 2,
      "byteOffset": 38592,
      "componentType": 5126,
      "count": 142,
      "max": [
        1.4534668922424316,
        0.5635475516319275,
        2.7663004398345947
      ],
      "min": [
        -0.3771408200263977,
        -0.5635475516319275,
        1.7800979614257813
      ],
      "type": "VEC3"
    },
    {
      "bufferView": 2,
      "byteOffset": 40296,
      "componentType": 5126,
      "count": 142,
      "max": [
        0.9827971458435059,
        1.0,
        1.0
      ],
      "min": [
        -1.0,
        -1.0,
        -1.0
      ],
      "type": "VEC3"
    },
    {
      "bufferView": 3,
      "byteOffset": 25728,
      "componentType": 5126,
      "count": 142,
      "max": [
        1.0,
        0.9394572973251343,
        0.7720893621444702,
        1.0
      ],
      "min": [
        -1.0,
        -1.0,
        -1.0,
        1.0
      ],
      "type": "VEC4"
    },
    {
      "bufferView": 1,
      "byteOffset": 12864,
      "componentType": 5126,
      "count": 142,
      "max": [
        0.9439670443534851,
        0.9127697944641113
      ],
      "min": [
        0.004779502749443054,
        0.1797686666250229
      ],
      "type": "VEC2"
    },
    {
      "bufferView": 0,
      "byteOffset": 23388,
      "componentType": 5125,
      "count": 384,
      "type": "SCALAR"
    },
    {
      "bufferView": 2,
      "byteOffset": 42000,
      "componentType": 5126,
      "count": 218,
      "max": [
        1.3442047834396362,
        0.7212901711463928,
        0.4775891900062561
      ],
      "min": [
        -1.3198776245117188,
        -0.7212901711463928,
        -0.768589973449707
      ],
      "type": "VEC3"
    },
    {
      "bufferView": 2,
      "byteOffset": 44616,
      "componentType": 5126,
      "count": 218,
      "max": [
        0.9998120665550232,
        1.0,
        1.0
      ],
      "min": [
        -0.9936419725418091,
        -1.0,
        -1.0
      ],
      "type": "VEC3"
    },
    {
      "bufferView": 3,
      "byteOffset": 28000,
      "componentType": 5126,
      "count": 218,
      "max": [
        0.9998824000358582,
        1.0,
        1.0,
        1.0
      ],
      "min": [
        -1.0,
        -1.0,
        -1.0,
        1.0
      ],
      "type": "VEC4"
    },
    {
      "bufferView": 1,
      "byteOffset": 14000,
      "componentType": 5126,
      "count": 218,
      "max": [
        0.9952204823493958,
        0.9725881218910217
      ],
      "min": [
        0.004779502749443054,
        0.004779502749443054
      ],
      "type": "VEC2"
    },
    {
      "bufferView": 0,
      "byteOffset": 24924,
      "componentType": 5125,
      "count": 546,
      "type": "SCALAR"
    },
    {
      "bufferView": 2,
      "byteOffset": 47232,
      "componentType": 5126,
      "count": 122,
      "max": [
        1.6245508193969727,
        0.3014570474624634,
        -1.2033650875091553
      ],
      "min": [
        -3.7900242805480957,
        -0.3014570474624634,
        -1.749983310699463
      ],
      "type": "VEC3"
    },
    {
      "bufferView": 2,
      "byteOffset": 48696,
      "componentType": 5126,
      "count": 122,
      "max": [
        1.0,
        1.0,
        1.0
      ],
      "min": [
        -1.0,
        -1.0,
        -1.0
      ],
      "type": "VEC3"
    },
    {
      "bufferView": 3,
      "byteOffset": 31488,
      "componentType": 5126,
      "count": 122,
      "max": [
        1.0,
        1.0,
        1.0,
        1.0
      ],
      "min": [
        -1.0,
        -1.0,
        -1.0,
        1.0
      ],
      "type": "VEC4"
    },
    {
      "bufferView": 1,
      "byteOffset": 15744,
      "componentType": 5126,
      "count": 122,
      "max": [
        0.9866278767585754,
        0.968344509601593
      ],
      "min": [
        0.004779502749443054,
        0.004779502749443054
      ],
      "type": "VEC2"
    },
    {
      "bufferView": 0,
      "byteOffset": 27108,
      "componentType": 5125,
      "count": 228,
      "type": "SCALAR"
    },
    {
      "bufferView": 2,
      "byteOffset": 50160,
      "componentType": 5126,
      "count": 359,
      "max": [
        0.9875161051750183,
        0.5789065957069397,
        0.611056387424469
      ],
      "min": [
        -0.5651872754096985,
        -0.5789065957069397,
        -0.859944224357605
      ],
      "type": "VEC3"
    },
    {
      "bufferView": 2,
      "byteOffset": 54468,
      "componentType": 5126,
      "count": 359,
      "max": [
        1.0,
        1.0,
        1.0
      ],
      "min": [
        -1.0,
        -1.0,
        -1.0
      ],
      "type": "VEC3"
    },
    {
      "bufferView": 3,
      "byteOffset": 33440,
      "componentType": 5126,
      "count": 359,
      "max": [
        1.0,
        1.0,
        1.0,
        1.0
      ],
      "min": [
        -1.0,
        -1.0,
        -1.0,
        1.0
      ],
      "type": "VEC4"
    },
    {
      "bufferView": 1,
      "byteOffset": 16720,
      "componentType": 5126,
      "count": 359,
      "max": [
        0.9019125699996948,
        0.9708924889564514
      ],
      "min": [
        0.10098976641893387,
        0.004779502749443054
      ],
      "type": "VEC2"
    },
    {
      "bufferView": 0,
      "byteOffset": 28020,
      "componentType": 5125,
      "count": 747,
      "type": "SCALAR"
    },
    {
      "bufferView": 2,
      "byteOffset": 58776,
      "componentType": 5126,
      "count": 197,
      "max": [
        1.5419626235961914,
        0.4875961244106293,
        0.48398903012275696
      ],
      "min": [
        -1.2638181447982788,
        -0.4875961244106293,
        -0.4715815782546997
      ],
      "type": "VEC3"
    },
    {
      "bufferView": 2,
      "byteOffset": 61140,
      "componentType": 5126,
      "count": 197,
      "max": [
        1.0,
        0.9943216443061829,
        0.9807637333869934
      ],
      "min": [
        -1.0,
        -0.999983012676239,
        -0.9807636737823486
      ],
      "type": "VEC3"
    },
    {
      "bufferView": 3,
      "byteOffset": 39184,
      "componentType": 5126,
      "count": 197,
      "max": [
        0.13936962187290192,
        0.9807637333869934,
        0.9999845623970032,
        1.0
      ],
      "min": [
        -1.0,
        -0.9807637333869934,
        -0.9999876022338867,
        1.0
      ],
      "type": "VEC4"
    },
    {
      "bufferView": 1,
      "byteOffset": 19592,
      "componentType": 5126,
      "count": 197,
      "max": [
        0.9926313161849976,
        0.9692111611366272
      ],
      "min": [
        0.12003294378519058,
        0.36736807227134705
      ],
      "type": "VEC2"
    },
    {
      "bufferView": 0,
      "byteOffset": 31008,
      "componentType": 5125,
      "count": 576,
      "type": "SCALAR"
    },
    {
      "bufferView": 2,
      "byteOffset": 63504,
      "componentType": 5126,
      "count": 134,
      "max": [
        0.6060245037078857,
        0.6969654560089111,
        0.6060245633125305
      ],
      "min": [
        -0.6060245633125305,
        -0.6969655156135559,
        -0.6060245633125305
      ],
      "type": "VEC3"
    },
    {
      "bufferView": 2,
      "byteOffset": 65112,
      "componentType": 5126,
      "count": 134,
      "max": [
        1.0,
        1.0,
        1.0
      ],
      "min": [
        -1.0,
        -1.0,
        -1.0
      ],
      "type": "VEC3"
    },
    {
      "bufferView": 3,
      "byteOffset": 42336,
      "componentType": 5126,
      "count": 134,
      "max": [
        0.5838894248008728,
        1.0,
        0.8424795269966125,
        1.0
      ],
      "min": [
        -0.9807878136634827,
        -0.42376744747161865,
        -2.6476907351025147e-06,
        1.0
      ],
      "type": "VEC4"
    },
    {
      "bufferView": 1,
      "byteOffset": 21168,
      "componentType": 5126,
      "count": 134,
      "max": [
        0.8461761474609375,
        0.9488120675086975
      ],
      "min": [
        0.004779502749443054,
        0.3211975693702698
      ],
      "type": "VEC2"
    },
    {
      "bufferView": 0,
      "byteOffset": 33312,
      "componentType": 5125,
      "count": 384,
      "type": "SCALAR"
    }
  ],
  "asset": {
    "extras": {
      "author": "goodchildn (https://sketchfab.com/goodchildn)",
      "license": "CC-BY-4.0 (http://creativecommons.org/licenses/by/4.0/)",
      "source": "https://sketchfab.com/3d-models/nerf-gun-firestrike-elite-c675381c9b1749afbfc6a70ef227fdd1",
      "title": "Nerf Gun - Firestrike Elite"
    },
    "generator": "Sketchfab-12.64.0",
    "version": "2.0"
  },
  "bufferViews": [
    {
      "buffer": 0,
      "byteLength": 34848,
      "name": "floatBufferViews",
      "target": 34963
    },
    {
      "buffer": 0,
      "byteLength": 22240,
      "byteOffset": 34848,
      "byteStride": 8,
      "name": "floatBufferViews",
      "target": 34962
    },
    {
      "buffer": 0,
      "byteLength": 66720,
      "byteOffset": 57088,
      "byteStride": 12,
      "name": "floatBufferViews",
      "target": 34962
    },
    {
      "buffer": 0,
      "byteLength": 44480,
      "byteOffset": 123808,
      "byteStride": 16,
      "name": "floatBufferViews",
      "target": 34962
    }
  ],
  "buffers": [
    {
      "byteLength": 168288,
      "uri": "scene.bin"
    }
  ],
  "extensionsRequired": [
    "KHR_materials_pbrSpecularGlossiness"
  ],
  "extensionsUsed": [
    "KHR_materials_pbrSpecularGlossiness"
  ],
  "images": [
    {
      "uri": "textures/Material_diffuse.png"
    },
    {
      "uri": "textures/Material_specularGlossiness.png"
    },
    {
      "uri": "textures/Material_normal.png"
    },
    {
      "uri": "textures/Material_occlusion.png"
    }
  ],
  "materials": [
    {
      "doubleSided": true,
      "extensions": {
        "KHR_materials_pbrSpecularGlossiness": {
          "diffuseFactor": [
            1.0,
            1.0,
            1.0,
            1.0
          ],
          "diffuseTexture": {
            "index": 0
          },
          "glossinessFactor": 1.0,
          "specularFactor": [
            1.0,
            1.0,
            1.0
          ],
          "specularGlossinessTexture": {
            "index": 1
          }
        }
      },
      "name": "Material",
      "normalTexture": {
        "index": 2
      },
      "occlusionTexture": {
        "index": 3
      }
    }
  ],
  "meshes": [
    {
      "name": "Grip_LP_Material_0",
      "primitives": [
        {
          "attributes": {
            "NORMAL": 1,
            "POSITION": 0,
            "TANGENT": 2,
            "TEXCOORD_0": 3
          },
          "indices": 4,
          "material": 0,
          "mode": 4
        }
      ]
    },
    {
      "name": "Part 1_LP_Material_0",
      "primitives": [
        {
          "attributes": {
            "NORMAL": 6,
            "POSITION": 5,
            "TANGENT": 7,
            "TEXCOORD_0": 8
          },
          "indices": 9,
          "material": 0,
          "mode": 4
        }
      ]
    },
    {
      "name": "Part 2_LP_Material_0",
      "primitives": [
        {
          "attributes": {
            "NORMAL": 11,
            "POSITION": 10,
            "TANGENT": 12,
            "TEXCOORD_0": 13
          },
          "indices": 14,
          "material": 0,
          "mode": 4
        }
      ]
    },
    {
      "name": "Part 3_LP_Material_0",
      "primitives": [
        {
          "attributes": {
            "NORMAL": 16,
            "POSITION": 15,
            "TANGENT": 17,
            "TEXCOORD_0": 18
          },
          "indices": 19,
          "material": 0,
          "mode": 4
        }
      ]
    },
    {
      "name": "Part 4_LP_Material_0",
      "primitives": [
        {
          "attributes": {
            "NORMAL": 21,
            "POSITION": 20,
            "TANGENT": 22,
            "TEXCOORD_0": 23
          },
          "indices": 24,
          "material": 0,
          "mode": 4
        }
      ]
    },
    {
      "name": "Part 5_LP_Material_0",
      "primitives": [
        {
          "attributes": {
            "NORMAL": 26,
            "POSITION": 25,
            "TANGENT": 27,
            "TEXCOORD_0": 28
          },
          "indices": 29,
          "material": 0,
          "mode": 4
        }
      ]
    },
    {
      "name": "Part 6_LP_Material_0",
      "primitives": [
        {
          "attributes": {
            "NORMAL": 31,
            "POSITION": 30,
            "TANGENT": 32,
            "TEXCOORD_0": 33
          },
          "indices": 34,
          "material": 0,
          "mode": 4
        }
      ]
    },
    {
      "name": "Part 7_LP_Material_0",
      "primitives": [
        {
          "attributes": {
            "NORMAL": 36,
            "POSITION": 35,
            "TANGENT": 37,
            "TEXCOORD_0": 38
          },
          "indices": 39,
          "material": 0,
          "mode": 4
        }
      ]
    }
  ],
  "nodes": [
    {
      "children": [
        1
      ],
      "matrix": [
        1.0,
        0.0,
        0.0,
        0.0,
        0.0,
        2.220446049250313e-16,
        -1.0,
        0.0,
        0.0,
        1.0,
        2.220446049250313e-16,
        0.0,
        0.0,
        0.0,
        0.0,
        1.0
      ],
      "name": "Sketchfab_model"
    },
    {
      "children": [
        2
      ],
      "matrix": [
        1.0,
        0.0,
        0.0,
        0.0,
        0.0,
        0.0,
        1.0,
        0.0,
        0.0,
        -1.0,
        0.0,
        0.0,
        0.0,
        0.0,
        0.0,
        1.0
      ],
      "name": "nerf gun_2.8.fbx"
    },
    {
      "children": [
        3,
        5,
        7,
        9,
        11,
        13,
        15,
        17
      ],
      "name": "RootNode"
    },
    {
      "children": [
        4
      ],
      "matrix": [
        100.0,
        0.0,
        0.0,
        0.0,
        0.0,
        -1.629206793918314e-05,
        -99.99999999999868,
        0.0,
        0.0,
        99.99999999999868,
        -1.629206793918314e-05,
        0.0,
        0.0,
        0.0,
        0.0,
        1.0
      ],
      "name": "Grip_LP"
    },
    {
      "mesh": 0,
      "name": "Grip_LP_Material_0"
    },
    {
      "children": [
        6
      ],
      "matrix": [
        100.0,
        0.0,
        0.0,
        0.0,
        0.0,
        -1.629206793918314e-05,
        -99.99999999999868,
        0.0,
        0.0,
        99.99999999999868,
        -1.629206793918314e-05,
        0.0,
        0.0,
        0.0,
        0.0,
        1.0
      ],
      "name": "Part 1_LP"
    },
    {
      "mesh": 1,
      "name": "Part 1_LP_Material_0"
    },
    {
      "children": [
        8
      ],
      "matrix": [
        100.0,
        0.0,
        0.0,
        0.0,
        0.0,
        -1.629206793918314e-05,
        -99.99999999999868,
        0.0,
        0.0,
        99.99999999999868,
        -1.629206793918314e-05,
        0.0,
        0.0,
        0.0,
        0.0,
        1.0
      ],
      "name": "Part 2_LP"
    },
    {
      "mesh": 2,
      "name": "Part 2_LP_Material_0"
    },
    {
      "children": [
        10
      ],
      "matrix": [
        100.0,
        0.0,
        0.0,
        0.0,
        0.0,
        -1.629206793918314e-05,
        -99.99999999999868,
        0.0,
        0.0,
        99.99999999999868,
        -1.629206793918314e-05,
        0.0,
        408.2777404785156,
        58.062068939208984,
        7.801151696185116e-06,
        1.0
      ],
      "name": "Part 3_LP"
    },
    {
      "mesh": 3,
      "name": "Part 3_LP_Material_0"
    },
    {
      "children": [
        12
      ],
      "matrix": [
        100.0,
        0.0,
        0.0,
        0.0,
        0.0,
        -1.629206793918314e-05,
        -99.99999999999868,
        0.0,
        0.0,
        99.99999999999868,
        -1.629206793918314e-05,
        0.0,
        341.28839111328125,
        422.2565612792969,
        0.0,
        1.0
      ],
      "name": "Part 4_LP"
    },
    {
      "mesh": 4,
      "name": "Part 4_LP_Material_0"
    },
    {
      "children": [
        14
      ],
      "matrix": [
        100.0,
        0.0,
        0.0,
        0.0,
        0.0,
        -1.629206793918314e-05,
        -99.99999999999868,
        0.0,
        0.0,
        99.99999999999868,
        -1.629206793918314e-05,
        0.0,
        491.0602111816406,
        236.7126922607422,
        0.0,
        1.0
      ],
      "name": "Part 5_LP"
    },
    {
      "mesh": 5,
      "name": "Part 5_LP_Material_0"
    },
    {
      "children": [
        16
      ],
      "matrix": [
        100.0,
        0.0,
        0.0,
        0.0,
        0.0,
        -1.629206793918314e-05,
        -99.99999999999868,
        0.0,
        0.0,
        99.99999999999868,
        -1.629206793918314e-05,
        0.0,
        420.5515441894531,
        124.65690612792969,
        -0.033786892890930176,
        1.0
      ],
      "name": "Part 6_LP"
    },
    {
      "mesh": 6,
      "name": "Part 6_LP_Material_0"
    },
    {
      "children": [
        18
      ],
      "matrix": [
        100.0,
        0.0,
        0.0,
        0.0,
        0.0,
        -1.629206793918314e-05,
        -99.99999999999868,
        0.0,
        0.0,
        99.99999999999868,
        -1.629206793918314e-05,
        0.0,
        56.295413970947266,
        220.3270721435547,
        0.0,
        1.0
      ],
      "name": "Part 7_LP"
    },
    {
      "mesh": 7,
      "name": "Part 7_LP_Material_0"
    }
  ],
  "samplers": [
    {
      "magFilter": 9729,
      "minFilter": 9987,
      "wrapS": 10497,
      "wrapT": 10497
    }
  ],
  "scene": 0,
  "scenes": [
    {
      "name": "Sketchfab_Scene",
      "nodes": [
        0
      ]
    }
  ],
  "textures": [
    {
      "sampler": 0,
      "source": 0
    },
    {
      "sampler": 0,
      "source": 1
    },
    {
      "sampler": 0,
      "source": 2
    },
    {
      "sampler": 0,
      "source": 3
    }
  ]
}
