<?xml version="1.0" standalone="no"?>
<!DOCTYPE svg PUBLIC "-//W3C//DTD SVG 20010904//EN"
 "http://www.w3.org/TR/2001/REC-SVG-20010904/DTD/svg10.dtd">
<svg version="1.0" xmlns="http://www.w3.org/2000/svg"
 width="260.000000pt" height="260.000000pt" viewBox="0 0 260.000000 260.000000"
 preserveAspectRatio="xMidYMid meet">
<metadata>
Created by potrace 1.14, written by Peter Selinger 2001-2017
</metadata>
<g transform="translate(0.000000,260.000000) scale(0.100000,-0.100000)"
fill="#000000" stroke="none">
<path d="M1281 2134 c-341 -72 -860 -373 -1062 -616 -79 -95 -112 -174 -117
-279 -4 -77 -1 -93 21 -142 50 -110 149 -191 341 -282 248 -118 422 -146 638
-104 l58 12 -55 58 c-52 57 -111 150 -135 214 -9 24 6 13 77 -56 145 -141 271
-214 460 -266 91 -26 111 -28 288 -27 178 0 196 2 278 27 277 85 428 241 427
441 -1 132 -50 246 -150 346 -107 107 -212 150 -370 150 -137 0 -247 -39 -369
-129 -64 -48 -157 -139 -214 -211 l-28 -35 7 45 c9 65 40 142 80 200 19 27 34
51 34 53 0 9 -140 68 -200 84 -181 48 -454 2 -658 -112 -25 -14 -47 -23 -50
-21 -9 9 106 115 167 155 77 49 203 95 318 115 129 23 258 20 413 -9 159 -30
221 -31 278 -5 100 46 97 200 -7 293 -98 88 -313 135 -470 101z"/>
</g>
</svg>
