<svg width="123" height="30" viewBox="0 0 123 30" fill="none" xmlns="http://www.w3.org/2000/svg">
<path d="M3.984 11.408H7.344C7.824 11.408 8.264 11.508 8.664 11.708C9.072 11.908 9.392 12.18 9.624 12.524C9.856 12.868 9.972 13.244 9.972 13.652C9.972 14.084 9.864 14.46 9.648 14.78C9.44 15.092 9.164 15.332 8.82 15.5V15.596C9.268 15.756 9.624 16.012 9.888 16.364C10.152 16.708 10.284 17.124 10.284 17.612C10.284 18.084 10.156 18.504 9.9 18.872C9.652 19.232 9.312 19.512 8.88 19.712C8.456 19.904 7.984 20 7.464 20H3.984V11.408ZM7.224 14.912C7.576 14.912 7.856 14.816 8.064 14.624C8.28 14.424 8.388 14.176 8.388 13.88C8.388 13.592 8.284 13.352 8.076 13.16C7.876 12.96 7.608 12.86 7.272 12.86H5.604V14.912H7.224ZM7.404 18.524C7.796 18.524 8.1 18.424 8.316 18.224C8.54 18.016 8.652 17.748 8.652 17.42C8.652 17.092 8.54 16.824 8.316 16.616C8.092 16.408 7.772 16.304 7.356 16.304H5.604V18.524H7.404ZM11.7535 11.408H14.8855C15.4455 11.408 15.9415 11.524 16.3735 11.756C16.8135 11.988 17.1535 12.312 17.3935 12.728C17.6335 13.136 17.7535 13.6 17.7535 14.12C17.7535 14.672 17.5775 15.164 17.2255 15.596C16.8815 16.02 16.4455 16.328 15.9175 16.52L15.9055 16.604L18.2095 19.904V20H16.3495L14.1295 16.772H13.3735V20H11.7535V11.408ZM14.8735 15.284C15.2415 15.284 15.5415 15.172 15.7735 14.948C16.0055 14.724 16.1215 14.44 16.1215 14.096C16.1215 13.768 16.0095 13.488 15.7855 13.256C15.5695 13.024 15.2735 12.908 14.8975 12.908H13.3735V15.284H14.8735ZM21.771 11.408H23.631L26.859 20H25.071L24.351 17.948H21.063L20.343 20H18.555L21.771 11.408ZM23.823 16.46L23.067 14.3L22.755 13.268H22.659L22.347 14.3L21.579 16.46H23.823ZM28.0192 11.408H29.9032L33.3592 17.168H33.4552L33.3592 15.512V11.408H34.9672V20H33.2632L29.6152 13.916H29.5192L29.6152 15.572V20H28.0192V11.408ZM36.9254 11.408H39.8294C40.7254 11.408 41.5054 11.588 42.1694 11.948C42.8334 12.308 43.3454 12.812 43.7054 13.46C44.0654 14.108 44.2454 14.856 44.2454 15.704C44.2454 16.552 44.0654 17.3 43.7054 17.948C43.3454 18.596 42.8334 19.1 42.1694 19.46C41.5054 19.82 40.7254 20 39.8294 20H36.9254V11.408ZM39.7574 18.464C40.6854 18.464 41.3934 18.22 41.8814 17.732C42.3694 17.236 42.6134 16.56 42.6134 15.704C42.6134 14.848 42.3694 14.176 41.8814 13.688C41.3934 13.192 40.6854 12.944 39.7574 12.944H38.5454V18.464H39.7574ZM49.8408 20.192C49.0008 20.192 48.2368 19.996 47.5488 19.604C46.8688 19.204 46.3328 18.66 45.9408 17.972C45.5488 17.284 45.3528 16.528 45.3528 15.704C45.3528 14.88 45.5488 14.124 45.9408 13.436C46.3328 12.748 46.8688 12.208 47.5488 11.816C48.2368 11.416 49.0008 11.216 49.8408 11.216C50.6808 11.216 51.4408 11.416 52.1208 11.816C52.8088 12.208 53.3488 12.748 53.7408 13.436C54.1328 14.124 54.3288 14.88 54.3288 15.704C54.3288 16.528 54.1328 17.284 53.7408 17.972C53.3488 18.66 52.8088 19.204 52.1208 19.604C51.4408 19.996 50.6808 20.192 49.8408 20.192ZM49.8408 18.656C50.3688 18.656 50.8528 18.532 51.2928 18.284C51.7328 18.036 52.0768 17.688 52.3248 17.24C52.5808 16.792 52.7088 16.28 52.7088 15.704C52.7088 15.128 52.5808 14.616 52.3248 14.168C52.0768 13.72 51.7328 13.372 51.2928 13.124C50.8528 12.876 50.3688 12.752 49.8408 12.752C49.3128 12.752 48.8288 12.876 48.3888 13.124C47.9568 13.372 47.6128 13.72 47.3568 14.168C47.1088 14.616 46.9848 15.128 46.9848 15.704C46.9848 16.28 47.1088 16.792 47.3568 17.24C47.6128 17.688 47.9568 18.036 48.3888 18.284C48.8288 18.532 49.3128 18.656 49.8408 18.656ZM55.8629 11.408H57.7469L61.2029 17.168H61.2989L61.2029 15.512V11.408H62.8109V20H61.1069L57.4589 13.916H57.3629L57.4589 15.572V20H55.8629V11.408Z" fill="black"/>
<path d="M68.7772 20.192C67.9452 20.192 67.1892 19.996 66.5092 19.604C65.8292 19.212 65.2932 18.676 64.9012 17.996C64.5172 17.308 64.3252 16.544 64.3252 15.704C64.3252 14.864 64.5172 14.104 64.9012 13.424C65.2932 12.736 65.8292 12.196 66.5092 11.804C67.1892 11.412 67.9452 11.216 68.7772 11.216C69.4172 11.216 70.0012 11.34 70.5292 11.588C71.0652 11.828 71.5292 12.172 71.9212 12.62L71.1892 13.328C70.8612 12.936 70.5012 12.648 70.1092 12.464C69.7252 12.28 69.2812 12.188 68.7772 12.188C68.1532 12.188 67.5812 12.336 67.0612 12.632C66.5412 12.92 66.1252 13.332 65.8132 13.868C65.5092 14.396 65.3572 15.008 65.3572 15.704C65.3572 16.4 65.5092 17.016 65.8132 17.552C66.1252 18.08 66.5412 18.492 67.0612 18.788C67.5812 19.076 68.1532 19.22 68.7772 19.22C69.8172 19.22 70.7012 18.792 71.4292 17.936L72.1732 18.656C71.7732 19.128 71.2812 19.504 70.6972 19.784C70.1132 20.056 69.4732 20.192 68.7772 20.192ZM76.1117 11.408H77.2637L80.5277 20H79.4117L78.5477 17.636H74.8397L73.9757 20H72.8597L76.1117 11.408ZM78.1997 16.676L77.0597 13.58L76.7117 12.656H76.6637L76.3277 13.58L75.1877 16.676H78.1997ZM81.667 11.408H83.143L85.879 18.452H85.927L88.663 11.408H90.139V20H89.131V14.54L89.179 12.908H89.131L86.323 20H85.483L82.675 12.908H82.627L82.675 14.54V20H81.667V11.408ZM92.0616 11.408H97.0296V12.38H93.0696V15.224H96.6456V16.184H93.0696V19.028H97.0296V20H92.0616V11.408ZM98.6709 11.408H101.575C102.047 11.408 102.487 11.516 102.895 11.732C103.303 11.948 103.627 12.252 103.867 12.644C104.115 13.028 104.239 13.464 104.239 13.952C104.239 14.352 104.147 14.724 103.963 15.068C103.787 15.412 103.539 15.7 103.219 15.932C102.907 16.164 102.559 16.32 102.175 16.4L102.151 16.436L104.575 19.952V20H103.375L101.035 16.496H99.6789V20H98.6709V11.408ZM101.515 15.548C101.811 15.548 102.087 15.48 102.343 15.344C102.607 15.208 102.815 15.02 102.967 14.78C103.127 14.532 103.207 14.256 103.207 13.952C103.207 13.688 103.139 13.436 103.003 13.196C102.867 12.956 102.675 12.76 102.427 12.608C102.187 12.456 101.907 12.38 101.587 12.38H99.6789V15.548H101.515ZM105.702 11.408H110.67V12.38H106.71V15.224H110.286V16.184H106.71V19.028H110.67V20H105.702V11.408ZM112.312 11.408H115.216C115.688 11.408 116.128 11.516 116.536 11.732C116.944 11.948 117.268 12.252 117.508 12.644C117.756 13.028 117.88 13.464 117.88 13.952C117.88 14.352 117.788 14.724 117.604 15.068C117.428 15.412 117.18 15.7 116.86 15.932C116.548 16.164 116.2 16.32 115.816 16.4L115.792 16.436L118.216 19.952V20H117.016L114.676 16.496H113.32V20H112.312V11.408ZM115.156 15.548C115.452 15.548 115.728 15.48 115.984 15.344C116.248 15.208 116.456 15.02 116.608 14.78C116.768 14.532 116.848 14.256 116.848 13.952C116.848 13.688 116.78 13.436 116.644 13.196C116.508 12.956 116.316 12.76 116.068 12.608C115.828 12.456 115.548 12.38 115.228 12.38H113.32V15.548H115.156Z" fill="#0B8ACF"/>
</svg>
