<svg width="178" height="80" viewBox="0 0 178 80" fill="none" xmlns="http://www.w3.org/2000/svg">
<path fill-rule="evenodd" clip-rule="evenodd" d="M163.451 26.1373C151.017 20.1931 135.045 18.9082 135.045 18.9082C128.075 10.3922 116.297 9.13021 104.394 9.13021C104.394 9.13021 44.4497 9.26183 35.123 9.26183C24.269 9.26183 23.1783 4.95575 23.1783 4.95575L8.63042 32.2005H46.4157C58.306 32.2005 58.9036 31.0116 66.7908 25.2096C75.1689 19.0461 81.8547 16.8168 89.7733 16.8168C97.6813 16.8168 102.921 18.6011 111.732 22.5039C120.543 26.4026 125.223 28.2997 130.463 26.0704C130.463 26.0704 126.336 31.6447 113.851 26.4047C101.367 21.1647 98.0261 20.0511 90.4398 20.0511C82.9579 20.0511 74.3917 23.6405 63.6651 34.3462L76.4497 44.6319C76.4497 44.6319 73.4912 49.2012 71.544 52.1179C69.6009 55.0346 69.7827 56.984 70.8169 58.4089C71.8574 59.8359 73.1632 60.4815 77.8955 60.4815C82.6278 60.4815 120.553 60.3937 124.794 60.3937C128.484 60.3937 140.023 60.7364 149.035 62.5374C160.996 64.9296 153.278 75.0169 153.278 75.0169C153.278 75.0169 161.289 69.7434 169.217 57.312C178.059 43.4452 175.88 32.0855 163.451 26.1373V26.1373Z" fill="#001B40"/>
<path fill-rule="evenodd" clip-rule="evenodd" d="M141.48 28.373C135.824 27.0212 140.659 23.7451 140.659 23.7451C132.521 25.3894 129.493 32.0272 128.795 33.8846C128.666 34.1374 128.53 34.3944 128.392 34.6681C123.892 43.7274 119.834 43.2426 112.148 43.2426H98.9788C88.3149 43.2426 83.3486 48.5286 78.236 57.5294H84.2595C89.7628 49.333 93.9226 47.1225 104.804 46.5082C129.688 46.5229 149.519 53.6621 159.999 59.1152C174.913 34.0852 152.789 29.9379 141.48 28.373V28.373Z" fill="white"/>
<path fill-rule="evenodd" clip-rule="evenodd" d="M95.1721 57.4312C97.955 53.2254 103.615 51.7984 112.735 52.3207C135.247 53.6245 148.189 58.0099 158.242 61.7561C145.844 54.4957 123.748 49.264 108.389 49.3142C100.88 49.3372 94.328 50.6493 90.4753 57.4312H95.1721V57.4312ZM119.335 32.5996C116.402 36.6905 112.536 38.0904 101.576 37.3403C88.8268 36.4733 92.1175 31.1016 93.603 28.4586C93.603 28.4586 93.5695 28.4586 93.5591 28.4545C94.1588 27.3533 94.7612 26.2536 95.3664 25.1554C85.5946 24.5516 78.4617 32.0731 78.4617 32.0731C85.743 39.2792 90.6006 40.0314 97.1903 40.0314H109.509C120.958 40.0314 123.727 34.877 124.776 32.5871C122.97 32.8201 121.142 32.8243 119.335 32.5996V32.5996Z" fill="white"/>
<path fill-rule="evenodd" clip-rule="evenodd" d="M113.773 31.3796L113.059 31.0892C111.937 32.2696 109.998 32.9591 108.122 32.7167C105.652 32.4013 104.229 30.6044 104.931 28.7115C105.034 28.4336 105.18 28.1704 105.355 27.9239C104.105 27.4312 102.845 26.9631 101.576 26.5198C99.0373 30.6233 97.5518 33.3436 106.358 34.0874C111.843 34.5554 113.332 33.6152 114.484 31.6449C114.245 31.5572 114.018 31.4778 113.773 31.3796V31.3796Z" fill="#79B652"/>
<path fill-rule="evenodd" clip-rule="evenodd" d="M69.5466 46.9762C65.0044 54.8613 63.2013 56.6727 66.3917 60.4168H16.0642C8.64085 60.4168 3.81661 60.1347 1.33241 56.3092C-1.08284 52.5923 -0.583492 49.0467 5.92056 37.3486H48.714C56.0809 37.3486 57.9738 37.7707 61.9707 40.8733C64.5305 42.8644 67.0562 44.899 69.5466 46.9762V46.9762Z" fill="#40597D"/>
</svg>
