<svg width="123" height="30" viewBox="0 0 123 30" fill="none" xmlns="http://www.w3.org/2000/svg">
<path d="M13.425 14.439C14.679 13.779 15.471 12.591 15.471 11.051C15.471 8.65299 13.491 7.04699 9.64099 7.04699H2.11699V22.447H10.081C14.129 22.447 16.241 20.907 16.241 18.245C16.241 16.309 15.141 14.989 13.425 14.439ZM9.20099 9.73099C10.939 9.73099 11.885 10.325 11.885 11.535C11.885 12.745 10.939 13.361 9.20099 13.361H5.65899V9.73099H9.20099ZM9.81699 19.763H5.65899V15.957H9.81699C11.665 15.957 12.655 16.573 12.655 17.871C12.655 19.191 11.665 19.763 9.81699 19.763ZM26.3093 22.711C28.9933 22.711 31.2153 21.743 32.6673 19.961L30.3793 17.849C29.3453 19.059 28.0473 19.675 26.5073 19.675C23.6253 19.675 21.5793 17.651 21.5793 14.747C21.5793 11.843 23.6253 9.81899 26.5073 9.81899C28.0473 9.81899 29.3453 10.435 30.3793 11.623L32.6673 9.51099C31.2153 7.75099 28.9933 6.78299 26.3313 6.78299C21.5353 6.78299 17.9713 10.105 17.9713 14.747C17.9713 19.389 21.5353 22.711 26.3093 22.711Z" fill="black"/>
</svg>
