<svg width="18" height="13" viewBox="0 0 18 13" fill="none" xmlns="http://www.w3.org/2000/svg">
<g clip-path="url(#clip0_292_231)">
<path d="M17.4418 0.258995C17.3596 0.176752 17.262 0.111506 17.1546 0.0669937C17.0472 0.0224811 16.9321 -0.000427246 16.8158 -0.000427246C16.6995 -0.000427246 16.5844 0.0224811 16.477 0.0669937C16.3696 0.111506 16.272 0.176752 16.1898 0.258995L5.58982 10.859L1.50982 6.78699C1.34316 6.62417 1.11902 6.53363 0.886025 6.53503C0.653034 6.53644 0.429995 6.62966 0.265308 6.79448C0.100621 6.9593 0.00757475 7.18241 0.00635971 7.4154C0.00514467 7.64839 0.0958593 7.87247 0.258818 8.03899L4.95882 12.739C5.04101 12.8212 5.13859 12.8865 5.24601 12.931C5.35342 12.9755 5.46855 12.9984 5.58482 12.9984C5.70109 12.9984 5.81622 12.9755 5.92363 12.931C6.03104 12.8865 6.12863 12.8212 6.21082 12.739L17.4408 1.509C17.6064 1.34322 17.6996 1.11853 17.6997 0.884201C17.6999 0.649871 17.6072 0.425032 17.4418 0.258995Z" fill="#AD00FF"/>
</g>
<defs>
<clipPath id="clip0_292_231">
<rect width="17.702" height="13" fill="white"/>
</clipPath>
</defs>
</svg>
